<svg xmlns="http://www.w3.org/2000/svg">
  <defs>
    <symbol id="ticket" viewBox="0 0 24 24">
      <rect x="2" y="13" width="20" height="9" rx="1" fill="none"/><line x1="6" y1="14" x2="6" y2="17.0068" fill="none"/><line x1="12" y1="15.5" x2="19" y2="15.5" fill="none"/><line x1="17" y1="19" x2="19" y2="19" fill="none"/><path d="M6 19.5857V19.5957" fill="none"/><path d="M12.9058 11.8807C12.3724 12.0237 12.0558 12.572 12.1987 13.1055C12.3417 13.6389 12.89 13.9555 13.4235 13.8126L12.9058 11.8807ZM1.77237 12.8308C1.91531 13.3643 2.46365 13.6808 2.99711 13.5379C3.53058 13.395 3.84716 12.8466 3.70422 12.3132L1.77237 12.8308ZM2.40077 7.44862L19.7874 2.78988L19.2698 0.858028L1.88313 5.51677L2.40077 7.44862ZM19.7874 2.78988L21.5992 9.55136L23.531 9.03372L21.7193 2.27224L19.7874 2.78988ZM21.5992 9.55136L12.9058 11.8807L13.4235 13.8126L22.1168 11.4832L21.5992 9.55136ZM3.70422 12.3132L2.40077 7.44862L0.468919 7.96626L1.77237 12.8308L3.70422 12.3132ZM21.5992 9.55136L22.1168 11.4832C23.1837 11.1973 23.8169 10.1007 23.531 9.03372L21.5992 9.55136ZM19.7874 2.78988L21.7193 2.27224C21.4334 1.20531 20.3367 0.572145 19.2698 0.858028L19.7874 2.78988ZM1.88313 5.51677C0.816199 5.80266 0.183036 6.89933 0.468919 7.96626L2.40077 7.44862L2.40077 7.44862L1.88313 5.51677Z" stroke="none"/><line x1="5.29848" y1="6.67219" x2="6.07752" y2="9.57963" fill="none"/><line x1="11.6116" y1="7.0511" x2="18.3731" y2="5.23937" fill="none"/><line x1="17.2178" y1="8.65477" x2="19.1497" y2="8.13713" fill="none"/>
    </symbol>
    <symbol id="qrcode" viewBox="0 0 20 20">
      <path d="M0 0.625C0 0.45924 0.065848 0.300269 0.183058 0.183058C0.300269 0.065848 0.45924 0 0.625 0H4.375C4.54076 0 4.69973 0.065848 4.81694 0.183058C4.93415 0.300269 5 0.45924 5 0.625C5 0.79076 4.93415 0.949732 4.81694 1.06694C4.69973 1.18415 4.54076 1.25 4.375 1.25H1.25V4.375C1.25 4.54076 1.18415 4.69973 1.06694 4.81694C0.949732 4.93415 0.79076 5 0.625 5C0.45924 5 0.300269 4.93415 0.183058 4.81694C0.065848 4.69973 0 4.54076 0 4.375V0.625Z"/><path d="M15 0.625C15 0.45924 15.0658 0.300269 15.1831 0.183058C15.3003 0.065848 15.4592 0 15.625 0H19.375C19.5408 0 19.6997 0.065848 19.8169 0.183058C19.9342 0.300269 20 0.45924 20 0.625V4.375C20 4.54076 19.9342 4.69973 19.8169 4.81694C19.6997 4.93415 19.5408 5 19.375 5C19.2092 5 19.0503 4.93415 18.9331 4.81694C18.8158 4.69973 18.75 4.54076 18.75 4.375V1.25H15.625C15.4592 1.25 15.3003 1.18415 15.1831 1.06694C15.0658 0.949732 15 0.79076 15 0.625Z"/><path d="M0.625 15C0.79076 15 0.949732 15.0658 1.06694 15.1831C1.18415 15.3003 1.25 15.4592 1.25 15.625V18.75H4.375C4.54076 18.75 4.69973 18.8158 4.81694 18.9331C4.93415 19.0503 5 19.2092 5 19.375C5 19.5408 4.93415 19.6997 4.81694 19.8169C4.69973 19.9342 4.54076 20 4.375 20H0.625C0.45924 20 0.300269 19.9342 0.183058 19.8169C0.065848 19.6997 0 19.5408 0 19.375V15.625C0 15.4592 0.065848 15.3003 0.183058 15.1831C0.300269 15.0658 0.45924 15 0.625 15Z"/><path d="M19.375 15C19.5408 15 19.6997 15.0658 19.8169 15.1831C19.9342 15.3003 20 15.4592 20 15.625V19.375C20 19.5408 19.9342 19.6997 19.8169 19.8169C19.6997 19.9342 19.5408 20 19.375 20H15.625C15.4592 20 15.3003 19.9342 15.1831 19.8169C15.0658 19.6997 15 19.5408 15 19.375C15 19.2092 15.0658 19.0503 15.1831 18.9331C15.3003 18.8158 15.4592 18.75 15.625 18.75H18.75V15.625C18.75 15.4592 18.8158 15.3003 18.9331 15.1831C19.0503 15.0658 19.2092 15 19.375 15Z"/><path d="M5 5H6.25V6.25H5V5Z"/><path fill-rule="evenodd" clip-rule="evenodd" d="M8.75 2.5H2.5V8.75H8.75V2.5ZM3.75 3.75H7.5V7.5H3.75V3.75Z"/><path d="M6.25 13.75H5V15H6.25V13.75Z"/><path fill-rule="evenodd" clip-rule="evenodd" d="M2.5 11.25H8.75V17.5H2.5V11.25ZM7.5 12.5H3.75V16.25H7.5V12.5Z"/><path d="M15 5H13.75V6.25H15V5Z"/><path fill-rule="evenodd" clip-rule="evenodd" d="M11.25 2.5H17.5V8.75H11.25V2.5ZM12.5 3.75V7.5H16.25V3.75H12.5Z"/><path fill-rule="evenodd" clip-rule="evenodd" d="M10 12.5H11.25V13.75H10V15H12.5V12.5H13.75V15H15V13.75H17.5V12.5H13.75V10H10V12.5ZM12.5 12.5H11.25V11.25H12.5V12.5Z"/><path d="M17.5 15H16.25V16.25H13.75V17.5H17.5V15Z"/><path d="M12.5 17.5V16.25H10V17.5H12.5Z"/><path d="M17.5 11.25H15V10H17.5V11.25Z"/>
    </symbol>
    <symbol id="ticket-lg" viewBox="0 0 128 128">
      <rect x="10.6667" y="69.3334" width="106.667" height="48" rx="1" fill="none"/><line x1="28.6667" y1="71.3334" x2="28.6667" y2="94.0364" fill="none"/><line x1="60.6667" y1="86" x2="104.667" y2="86" fill="none"/><line x1="87.3333" y1="104.667" x2="104.667" y2="104.667" fill="none"/><path d="M32 104.457V104.51" fill="none"/><path d="M69.6939 66.5836C68.627 66.8695 67.9938 67.9662 68.2797 69.0331C68.5656 70.1 69.6623 70.7332 70.7292 70.4473L69.6939 66.5836ZM12.6725 67.5681C12.9583 68.6351 14.055 69.2682 15.122 68.9824C16.1889 68.6965 16.822 67.5998 16.5362 66.5329L12.6725 67.5681ZM7.75578 37.6277L108.856 10.538L107.821 6.67431L6.7205 33.764L7.75578 37.6277ZM107.631 9.83091L119.537 54.2635L123.401 53.2282L111.495 8.79563L107.631 9.83091ZM120.244 53.0388L69.6939 66.5836L70.7292 70.4473L121.279 56.9025L120.244 53.0388ZM16.5362 66.5329L8.46289 36.403L4.59918 37.4383L12.6725 67.5681L16.5362 66.5329ZM119.537 54.2635C119.394 53.73 119.711 53.1817 120.244 53.0388L121.279 56.9025C122.88 56.4736 123.829 54.8286 123.401 53.2282L119.537 54.2635ZM108.856 10.538C108.323 10.681 107.774 10.3644 107.631 9.83091L111.495 8.79563C111.066 7.19524 109.421 6.24549 107.821 6.67431L108.856 10.538ZM6.7205 33.764C5.1201 34.1929 4.17036 35.8379 4.59918 37.4383L8.46289 36.403C8.60583 36.9365 8.28925 37.4848 7.75578 37.6277L6.7205 33.764Z" stroke="none"/><line x1="24.1765" y1="33.2278" x2="30.0569" y2="55.1736" fill="none"/><line x1="59.5722" y1="41.6883" x2="102.073" y2="30.3003" fill="none"/><line x1="89.4713" y1="50.2413" x2="106.214" y2="45.7551" fill="none"/>
    </symbol>
    <symbol id="arrow" viewBox="0 0 103 60">
      <path d="M91 20C96.5229 20 101 24.4772 101 30C101 35.4292 96.6733 39.8479 91.2799 39.9962L91 40H10C4.47715 40 0 35.5228 0 30C0 24.5708 4.32667 20.1521 9.72009 20.0038L10 20H91Z"/><path d="M67.1125 2.75C71.0438 -0.984701 77.2168 -0.896156 81.0401 2.8979L100.25 23.1125C103.848 26.8993 103.915 32.8001 100.454 36.6667L100.25 36.8875L81.25 56.8875C77.4462 60.8915 71.1166 61.0538 67.1125 57.25C63.1813 53.5153 62.9533 47.3459 66.5465 43.3332L66.75 43.1125L79.207 29.999L66.75 16.8875C62.9462 12.8834 63.1085 6.55385 67.1125 2.75Z"/>
    </symbol>
    <symbol id="arrow-xl" viewBox="0 0 280 164">
      <path d="M247.379 54.4445C262.392 54.4445 274.563 66.6323 274.563 81.6667C274.563 96.4463 262.801 108.475 248.14 108.878L247.379 108.889H27.1845C12.1709 108.889 0 96.7011 0 81.6667C0 66.8871 11.7618 54.8584 26.4236 54.4549L27.1845 54.4445H247.379Z"/>
      <path d="M182.446 7.48618C193.133 -2.68049 209.913 -2.43945 220.307 7.88882L272.528 62.9174C282.308 73.226 282.492 89.2892 273.082 99.815L272.528 100.416L220.878 154.86C210.537 165.76 193.33 166.202 182.446 155.847C171.759 145.681 171.139 128.886 180.907 117.963L181.46 117.362L215.324 81.664L181.46 45.9716C171.12 35.0716 171.561 17.8411 182.446 7.48618Z"/>
    </symbol>
    <symbol id="facebook" viewBox="0 0 24 24">
      <path fill-rule="evenodd" clip-rule="evenodd" d="M21.7856 1H2.2056C1.53834 1.00484 1 1.54714 1 2.2144V21.7944C1.00484 22.4617 1.54692 23 2.2144 23H12.7522V14.4926H9.89218V11.1618H12.7522V8.711C12.7522 5.8708 14.488 4.322 17.0226 4.322C17.8777 4.31826 18.7329 4.36248 19.5832 4.454V7.424H17.8366C16.457 7.424 16.1888 8.084 16.1888 9.041V11.1618H19.48L19.04 14.4926H16.18V23H21.7856C22.4562 23 23 22.4562 23 21.7856V2.2056C22.9949 1.53834 22.4526 1 21.7856 1Z"/><mask id="mask0_48_8846" style="mask-type:alpha" maskUnits="userSpaceOnUse" x="1" y="1" width="22" height="22"><path fill-rule="evenodd" clip-rule="evenodd" d="M21.7856 1H2.2056C1.53834 1.00484 1 1.54714 1 2.2144V21.7944C1.00484 22.4617 1.54692 23 2.2144 23H12.7522V14.4926H9.89218V11.1618H12.7522V8.711C12.7522 5.8708 14.488 4.322 17.0226 4.322C17.8777 4.31826 18.7329 4.36248 19.5832 4.454V7.424H17.8366C16.457 7.424 16.1888 8.084 16.1888 9.041V11.1618H19.48L19.04 14.4926H16.18V23H21.7856C22.4562 23 23 22.4562 23 21.7856V2.2056C22.9949 1.53834 22.4526 1 21.7856 1Z" fill="white"/></mask><g mask="url(#mask0_48_8846)"><rect width="24" height="24" fill="none"/></g>
    </symbol>
    <symbol id="linkedin" viewBox="0 0 24 24">
      <path fill-rule="evenodd" clip-rule="evenodd" d="M2.99008 1H21.0099C22.109 1 23 1.891 23 2.99008V21.0099C23 22.109 22.109 23 21.0099 23H2.99008C1.891 23 1 22.109 1 21.0099V2.99008C1 1.891 1.891 1 2.99008 1ZM7.22859 20.5754C7.54846 20.5754 7.80773 20.3161 7.80773 19.9963V9.66195C7.80773 9.34209 7.54846 9.08281 7.22859 9.08281H4.76332C4.44346 9.08281 4.18418 9.34209 4.18418 9.66195V19.9963C4.18418 20.3161 4.44346 20.5754 4.76332 20.5754H7.22859ZM5.99596 8.10865C4.70251 8.10865 3.65394 7.06008 3.65394 5.76663C3.65394 4.47318 4.70251 3.42461 5.99596 3.42461C7.28941 3.42461 8.33798 4.47318 8.33798 5.76663C8.33798 7.06008 7.28947 8.10865 5.99596 8.10865ZM20.1587 20.5754C20.4527 20.5754 20.6912 20.337 20.6912 20.0429V15.0413V15.0044C20.6913 12.8224 20.6915 8.9094 16.4794 8.9094C14.5665 8.9094 13.6681 9.60966 13.0635 10.5169V9.6153C13.0635 9.32124 12.8251 9.08281 12.5311 9.08281H9.97249C9.67842 9.08281 9.43999 9.32124 9.43999 9.6153V20.0429C9.43999 20.337 9.67842 20.5754 9.97249 20.5754H12.5311C12.8252 20.5754 13.0635 20.337 13.0635 20.0429V14.452C13.1299 13.7007 13.4606 12.0268 15.091 12.0268C17.038 12.0268 16.9994 14.1254 16.9832 15.0093C16.9819 15.0796 16.9808 15.1423 16.9808 15.1955V20.0429C16.9808 20.337 17.2192 20.5754 17.5132 20.5754H20.1587Z"/><mask id="mask0_48_8849" style="mask-type:alpha" maskUnits="userSpaceOnUse" x="1" y="1" width="22" height="22"><path fill-rule="evenodd" clip-rule="evenodd" d="M2.99008 1H21.0099C22.109 1 23 1.891 23 2.99008V21.0099C23 22.109 22.109 23 21.0099 23H2.99008C1.891 23 1 22.109 1 21.0099V2.99008C1 1.891 1.891 1 2.99008 1ZM7.22859 20.5754C7.54846 20.5754 7.80773 20.3161 7.80773 19.9963V9.66195C7.80773 9.34209 7.54846 9.08281 7.22859 9.08281H4.76332C4.44346 9.08281 4.18418 9.34209 4.18418 9.66195V19.9963C4.18418 20.3161 4.44346 20.5754 4.76332 20.5754H7.22859ZM5.99596 8.10865C4.70251 8.10865 3.65394 7.06008 3.65394 5.76663C3.65394 4.47318 4.70251 3.42461 5.99596 3.42461C7.28941 3.42461 8.33798 4.47318 8.33798 5.76663C8.33798 7.06008 7.28947 8.10865 5.99596 8.10865ZM20.1587 20.5754C20.4527 20.5754 20.6912 20.337 20.6912 20.0429V15.0413V15.0044C20.6913 12.8224 20.6915 8.9094 16.4794 8.9094C14.5665 8.9094 13.6681 9.60966 13.0635 10.5169V9.6153C13.0635 9.32124 12.8251 9.08281 12.5311 9.08281H9.97249C9.67842 9.08281 9.43999 9.32124 9.43999 9.6153V20.0429C9.43999 20.337 9.67842 20.5754 9.97249 20.5754H12.5311C12.8252 20.5754 13.0635 20.337 13.0635 20.0429V14.452C13.1299 13.7007 13.4606 12.0268 15.091 12.0268C17.038 12.0268 16.9994 14.1254 16.9832 15.0093C16.9819 15.0796 16.9808 15.1423 16.9808 15.1955V20.0429C16.9808 20.337 17.2192 20.5754 17.5132 20.5754H20.1587Z" fill="white"/></mask><g mask="url(#mask0_48_8849)"><rect width="24" height="24" fill="none"/></g>
    </symbol>
    <symbol id="instagram" viewBox="0 0 24 24">
      <path fill-rule="evenodd" clip-rule="evenodd" d="M12 1C9.01258 1 8.63794 1.01266 7.46471 1.0662C6.29385 1.1196 5.49426 1.30556 4.79454 1.57751C4.07123 1.85858 3.45775 2.2347 2.84623 2.84623C2.23466 3.45779 1.85858 4.07123 1.57746 4.79454C1.30552 5.49426 1.1196 6.29385 1.06615 7.46471C1.01262 8.63798 1 9.01254 1 12C1 14.9874 1.01262 15.362 1.06615 16.5353C1.1196 17.7061 1.30552 18.5057 1.57746 19.2054C1.85858 19.9287 2.23466 20.5422 2.84623 21.1537C3.45775 21.7653 4.07123 22.1414 4.79454 22.4225C5.49426 22.6944 6.29385 22.8804 7.46471 22.9338C8.63794 22.9873 9.01258 23 12 23C14.9874 23 15.362 22.9873 16.5352 22.9338C17.7061 22.8804 18.5057 22.6944 19.2054 22.4225C19.9288 22.1414 20.5422 21.7653 21.1537 21.1537C21.7653 20.5422 22.1414 19.9288 22.4225 19.2054C22.6944 18.5057 22.8804 17.7061 22.9338 16.5353C22.9873 15.362 23 14.9874 23 12C23 9.01258 22.9873 8.63798 22.9338 7.46471C22.8804 6.29385 22.6944 5.49426 22.4225 4.79454C22.1414 4.07123 21.7653 3.45779 21.1537 2.84623C20.5422 2.2347 19.9288 1.85858 19.2054 1.57751C18.5057 1.30556 17.7061 1.1196 16.5352 1.0662C15.362 1.01266 14.9874 1 12 1ZM12 2.98198C14.9371 2.98198 15.285 2.99316 16.4449 3.04608C17.5174 3.09503 18.0998 3.27423 18.4874 3.42487C19.0009 3.62442 19.3674 3.86278 19.7523 4.24768C20.1372 4.63263 20.3755 4.99906 20.5751 5.51252C20.7257 5.90013 20.9049 6.48257 20.9539 7.55506C21.0068 8.71496 21.018 9.06288 21.018 12C21.018 14.9371 21.0068 15.285 20.9539 16.4449C20.9049 17.5174 20.7257 18.0999 20.5751 18.4875C20.3755 19.0009 20.1372 19.3674 19.7523 19.7523C19.3674 20.1372 19.0009 20.3756 18.4874 20.5751C18.0998 20.7257 17.5174 20.905 16.4449 20.9539C15.2852 21.0068 14.9373 21.018 12 21.018C9.06262 21.018 8.71479 21.0068 7.55506 20.9539C6.48257 20.905 5.90008 20.7257 5.51247 20.5751C4.99906 20.3756 4.63259 20.1372 4.24768 19.7523C3.86278 19.3674 3.62437 19.0009 3.42482 18.4875C3.27423 18.0999 3.09503 17.5174 3.04608 16.4449C2.99316 15.285 2.98198 14.9371 2.98198 12C2.98198 9.06288 2.99316 8.71496 3.04608 7.55506C3.09503 6.48257 3.27423 5.90013 3.42482 5.51252C3.62437 4.99906 3.86278 4.63263 4.24768 4.24773C4.63259 3.86278 4.99906 3.62442 5.51247 3.42487C5.90008 3.27423 6.48257 3.09503 7.55501 3.04608C8.71496 2.99316 9.06284 2.98198 12 2.98198ZM12 15.6667C9.97495 15.6667 8.33329 14.025 8.33329 12C8.33329 9.97495 9.97495 8.33333 12 8.33333C14.025 8.33333 15.6667 9.97495 15.6667 12C15.6667 14.025 14.025 15.6667 12 15.6667ZM12 6.35136C8.88032 6.35136 6.35131 8.88032 6.35131 12C6.35131 15.1197 8.88032 17.6486 12 17.6486C15.1196 17.6486 17.6486 15.1197 17.6486 12C17.6486 8.88032 15.1196 6.35136 12 6.35136ZM19.1918 6.12818C19.1918 6.8572 18.6008 7.44816 17.8718 7.44816C17.1428 7.44816 16.5518 6.8572 16.5518 6.12818C16.5518 5.39915 17.1428 4.8082 17.8718 4.8082C18.6008 4.8082 19.1918 5.39915 19.1918 6.12818Z"/><mask id="mask0_48_8852" style="mask-type:alpha" maskUnits="userSpaceOnUse" x="1" y="1" width="22" height="22"><path fill-rule="evenodd" clip-rule="evenodd" d="M12 1C9.01258 1 8.63794 1.01266 7.46471 1.0662C6.29385 1.1196 5.49426 1.30556 4.79454 1.57751C4.07123 1.85858 3.45775 2.2347 2.84623 2.84623C2.23466 3.45779 1.85858 4.07123 1.57746 4.79454C1.30552 5.49426 1.1196 6.29385 1.06615 7.46471C1.01262 8.63798 1 9.01254 1 12C1 14.9874 1.01262 15.362 1.06615 16.5353C1.1196 17.7061 1.30552 18.5057 1.57746 19.2054C1.85858 19.9287 2.23466 20.5422 2.84623 21.1537C3.45775 21.7653 4.07123 22.1414 4.79454 22.4225C5.49426 22.6944 6.29385 22.8804 7.46471 22.9338C8.63794 22.9873 9.01258 23 12 23C14.9874 23 15.362 22.9873 16.5352 22.9338C17.7061 22.8804 18.5057 22.6944 19.2054 22.4225C19.9288 22.1414 20.5422 21.7653 21.1537 21.1537C21.7653 20.5422 22.1414 19.9288 22.4225 19.2054C22.6944 18.5057 22.8804 17.7061 22.9338 16.5353C22.9873 15.362 23 14.9874 23 12C23 9.01258 22.9873 8.63798 22.9338 7.46471C22.8804 6.29385 22.6944 5.49426 22.4225 4.79454C22.1414 4.07123 21.7653 3.45779 21.1537 2.84623C20.5422 2.2347 19.9288 1.85858 19.2054 1.57751C18.5057 1.30556 17.7061 1.1196 16.5352 1.0662C15.362 1.01266 14.9874 1 12 1ZM12 2.98198C14.9371 2.98198 15.285 2.99316 16.4449 3.04608C17.5174 3.09503 18.0998 3.27423 18.4874 3.42487C19.0009 3.62442 19.3674 3.86278 19.7523 4.24768C20.1372 4.63263 20.3755 4.99906 20.5751 5.51252C20.7257 5.90013 20.9049 6.48257 20.9539 7.55506C21.0068 8.71496 21.018 9.06288 21.018 12C21.018 14.9371 21.0068 15.285 20.9539 16.4449C20.9049 17.5174 20.7257 18.0999 20.5751 18.4875C20.3755 19.0009 20.1372 19.3674 19.7523 19.7523C19.3674 20.1372 19.0009 20.3756 18.4874 20.5751C18.0998 20.7257 17.5174 20.905 16.4449 20.9539C15.2852 21.0068 14.9373 21.018 12 21.018C9.06262 21.018 8.71479 21.0068 7.55506 20.9539C6.48257 20.905 5.90008 20.7257 5.51247 20.5751C4.99906 20.3756 4.63259 20.1372 4.24768 19.7523C3.86278 19.3674 3.62437 19.0009 3.42482 18.4875C3.27423 18.0999 3.09503 17.5174 3.04608 16.4449C2.99316 15.285 2.98198 14.9371 2.98198 12C2.98198 9.06288 2.99316 8.71496 3.04608 7.55506C3.09503 6.48257 3.27423 5.90013 3.42482 5.51252C3.62437 4.99906 3.86278 4.63263 4.24768 4.24773C4.63259 3.86278 4.99906 3.62442 5.51247 3.42487C5.90008 3.27423 6.48257 3.09503 7.55501 3.04608C8.71496 2.99316 9.06284 2.98198 12 2.98198ZM12 15.6667C9.97495 15.6667 8.33329 14.025 8.33329 12C8.33329 9.97495 9.97495 8.33333 12 8.33333C14.025 8.33333 15.6667 9.97495 15.6667 12C15.6667 14.025 14.025 15.6667 12 15.6667ZM12 6.35136C8.88032 6.35136 6.35131 8.88032 6.35131 12C6.35131 15.1197 8.88032 17.6486 12 17.6486C15.1196 17.6486 17.6486 15.1197 17.6486 12C17.6486 8.88032 15.1196 6.35136 12 6.35136ZM19.1918 6.12818C19.1918 6.8572 18.6008 7.44816 17.8718 7.44816C17.1428 7.44816 16.5518 6.8572 16.5518 6.12818C16.5518 5.39915 17.1428 4.8082 17.8718 4.8082C18.6008 4.8082 19.1918 5.39915 19.1918 6.12818Z" fill="white"/></mask><g mask="url(#mask0_48_8852)"><rect width="24" height="24" fill="none"/></g>
    </symbol>
    <symbol id="youtube" viewBox="0 0 24 24">
      <path fill-rule="evenodd" clip-rule="evenodd" d="M12.0712 4.06001C14.0409 4.09001 16.0106 4.11001 17.9803 4.15002C18.7802 4.17002 19.5801 4.24003 20.3799 4.32004C21.0398 4.38005 21.5097 4.7601 21.8597 5.28017C22.3496 6.00027 22.5596 6.83038 22.7096 7.67049C23.0695 9.68076 23.0095 11.701 22.9695 13.7313C22.9395 15.0415 22.8095 16.3417 22.4296 17.5918C22.2496 18.1819 21.9797 18.742 21.5297 19.182C21.2098 19.4921 20.8399 19.7021 20.3899 19.7221C18.9801 19.8021 17.5704 19.9221 16.1606 19.9521C13.401 19.9922 10.6415 20.0122 7.87189 19.9922C6.19216 19.9722 4.51242 19.8621 2.83269 19.7721C1.99282 19.7321 1.42291 19.2521 1.00297 18.562C0.563043 17.8219 0.39307 16.9917 0.26309 16.1616C-0.0968532 13.8213 -0.0368626 11.461 0.143109 9.11069C0.2031 8.28058 0.383071 7.45046 0.553045 6.63035C0.613035 6.32031 0.77301 6.03027 0.90299 5.73023C1.33292 4.7101 2.15279 4.27004 3.22262 4.24003C6.17216 4.16002 9.1217 4.08001 12.0712 4C12.0712 4.03 12.0712 4.04001 12.0712 4.06001ZM9.20168 7.83052C9.20168 10.6509 9.20168 13.4113 9.20168 16.2316C11.4013 14.8315 13.551 13.4513 15.7607 12.0411C13.551 10.6209 11.3913 9.2307 9.20168 7.83052Z"/><mask id="mask0_48_8855" style="mask-type:alpha" maskUnits="userSpaceOnUse" x="0" y="4" width="23" height="16"><path fill-rule="evenodd" clip-rule="evenodd" d="M12.0712 4.06001C14.0409 4.09001 16.0106 4.11001 17.9803 4.15002C18.7802 4.17002 19.5801 4.24003 20.3799 4.32004C21.0398 4.38005 21.5097 4.7601 21.8597 5.28017C22.3496 6.00027 22.5596 6.83038 22.7096 7.67049C23.0695 9.68076 23.0095 11.701 22.9695 13.7313C22.9395 15.0415 22.8095 16.3417 22.4296 17.5918C22.2496 18.1819 21.9797 18.742 21.5297 19.182C21.2098 19.4921 20.8399 19.7021 20.3899 19.7221C18.9801 19.8021 17.5704 19.9221 16.1606 19.9521C13.401 19.9922 10.6415 20.0122 7.87189 19.9922C6.19216 19.9722 4.51242 19.8621 2.83269 19.7721C1.99282 19.7321 1.42291 19.2521 1.00297 18.562C0.563043 17.8219 0.39307 16.9917 0.26309 16.1616C-0.0968532 13.8213 -0.0368626 11.461 0.143109 9.11069C0.2031 8.28058 0.383071 7.45046 0.553045 6.63035C0.613035 6.32031 0.77301 6.03027 0.90299 5.73023C1.33292 4.7101 2.15279 4.27004 3.22262 4.24003C6.17216 4.16002 9.1217 4.08001 12.0712 4C12.0712 4.03 12.0712 4.04001 12.0712 4.06001ZM9.20168 7.83052C9.20168 10.6509 9.20168 13.4113 9.20168 16.2316C11.4013 14.8315 13.551 13.4513 15.7607 12.0411C13.551 10.6209 11.3913 9.2307 9.20168 7.83052Z" fill="white"/></mask><g mask="url(#mask0_48_8855)"><rect width="24" height="24" fill="none"/></g>
    </symbol>
    <symbol id="pinterest" viewBox="0 0 24 24">
      <path fill-rule="evenodd" clip-rule="evenodd" d="M12 23C18.0751 23 23 18.0751 23 12C23 5.92487 18.0751 1 12 1C5.92487 1 1 5.92487 1 12C1 18.0751 5.92487 23 12 23ZM11.4979 15.1507C11.9109 15.4371 12.2635 15.6816 12.8879 15.7299C15.9562 15.9668 17.67 12.6675 17.2518 9.6209C16.88 6.92158 14.1865 5.54663 11.3168 5.86782C9.04774 6.12195 6.7855 7.95829 6.69118 10.5809C6.63275 12.1831 7.08728 13.385 8.61106 13.7224C9.04462 12.9571 8.81789 12.5834 8.57207 12.1782C8.44312 11.9656 8.30891 11.7444 8.26202 11.4535C7.70259 7.99496 12.252 5.63389 14.6328 8.04986C16.2807 9.72325 15.196 14.8679 12.5388 14.3338C11.2126 14.0672 11.6069 12.8274 12.0012 11.5873C12.3636 10.4475 12.7261 9.30748 11.7529 8.92264C10.1019 8.26908 9.225 10.9213 10.0078 12.239C9.88682 12.8359 9.72912 13.4237 9.56976 14.0177C9.12406 15.6789 8.6653 17.3888 8.96068 19.4826C10.2582 18.5408 10.6962 16.738 11.0547 14.8574C11.2172 14.956 11.3608 15.0556 11.4979 15.1507Z"/><mask id="mask0_48_8858" style="mask-type:alpha" maskUnits="userSpaceOnUse" x="1" y="1" width="22" height="22"><path fill-rule="evenodd" clip-rule="evenodd" d="M12 23C18.0751 23 23 18.0751 23 12C23 5.92487 18.0751 1 12 1C5.92487 1 1 5.92487 1 12C1 18.0751 5.92487 23 12 23ZM11.4979 15.1507C11.9109 15.4371 12.2635 15.6816 12.8879 15.7299C15.9562 15.9668 17.67 12.6675 17.2518 9.6209C16.88 6.92158 14.1865 5.54663 11.3168 5.86782C9.04774 6.12195 6.7855 7.95829 6.69118 10.5809C6.63275 12.1831 7.08728 13.385 8.61106 13.7224C9.04462 12.9571 8.81789 12.5834 8.57207 12.1782C8.44312 11.9656 8.30891 11.7444 8.26202 11.4535C7.70259 7.99496 12.252 5.63389 14.6328 8.04986C16.2807 9.72325 15.196 14.8679 12.5388 14.3338C11.2126 14.0672 11.6069 12.8274 12.0012 11.5873C12.3636 10.4475 12.7261 9.30748 11.7529 8.92264C10.1019 8.26908 9.225 10.9213 10.0078 12.239C9.88682 12.8359 9.72912 13.4237 9.56976 14.0177C9.12406 15.6789 8.6653 17.3888 8.96068 19.4826C10.2582 18.5408 10.6962 16.738 11.0547 14.8574C11.2172 14.956 11.3608 15.0556 11.4979 15.1507Z" fill="white"/></mask><g mask="url(#mask0_48_8858)"><rect width="24" height="24" fill="none"/></g>
    </symbol>
  </defs>
</svg>